<svg width="35.531250" height="30.000000" viewBox="0 0 35.5312 30" fill="none" xmlns="http://www.w3.org/2000/svg" xmlns:xlink="http://www.w3.org/1999/xlink">
	<desc>
			Created with Pixso.
	</desc>
	<defs/>
	<path id="logo_small_S" d="M12.5625 4.40625L33.6562 4.40625L33.6562 0L9.28125 0C4.125 0 0 3.84375 0 8.4375C0 13.125 4.125 16.9688 9.1875 17.0625L22.5938 17.0625C25.4062 17.0625 27.6562 18.9375 27.6562 21.2812C27.6562 23.625 25.4062 25.5 22.5938 25.5L2.53125 25.5L2.53125 30L25.9688 30C31.2188 30 35.5312 26.0625 35.5312 21.2812C35.5312 16.4062 31.2188 12.4688 25.9688 12.4688L12.5625 12.4688C9.84375 12.4688 7.6875 10.6875 7.6875 8.4375C7.78125 6.1875 9.9375 4.40625 12.5625 4.40625Z" fill="#000000" fill-opacity="1.000000" fill-rule="nonzero"/>
</svg>
