<svg width="255.750000" height="60.000000" viewBox="0 0 255.75 60" fill="none" xmlns="http://www.w3.org/2000/svg" xmlns:xlink="http://www.w3.org/1999/xlink">
	<desc>
			Created with Pixso.
	</desc>
	<defs/>
	<path id="Vector" d="M212.374 4.479L212.374 0L182.705 0L182.705 29.86L212.374 29.86L212.374 25.381L189.935 25.381L189.935 16.9829L203.736 16.9829L203.736 12.4105L189.935 12.4105L189.935 4.479L212.374 4.479ZM146.183 0L146.183 29.86L175.852 29.86L175.852 25.381L153.412 25.381L153.412 0L146.183 0ZM12.5811 4.479L33.7061 4.479L33.7061 0L9.29492 0C4.13086 0 0 3.82581 0 8.39819C0 13.0637 4.13086 16.8895 9.20117 16.9829L22.627 16.9829C25.4434 16.9829 27.6973 18.8491 27.6973 21.182C27.6973 23.5148 25.4434 25.381 22.627 25.381L2.53516 25.381L2.53516 29.86L26.0068 29.86C31.2646 29.86 35.583 25.9409 35.583 21.182C35.583 16.3297 31.2646 12.4105 26.0068 12.4105L12.5811 12.4105C9.8584 12.4105 7.69922 10.6377 7.69922 8.39819C7.79297 6.15869 9.95215 4.479 12.5811 4.479ZM93.7002 0L79.2412 29.86L84.123 29.86L96.4229 4.38574L99.1455 4.38574L111.538 29.86L119.988 29.86L105.624 0L93.7002 0ZM135.104 0L127.781 0L127.781 29.86L135.104 29.86L135.104 0ZM76.7998 0L42.3438 0L42.3438 4.38574L55.8633 4.38574L55.8633 29.86L63.1865 29.86L63.1865 4.479L76.7061 4.479L76.7061 0L76.7998 0ZM253.591 8.39819C253.591 3.73254 249.835 0 245.141 0L220.636 0L220.636 29.86L227.959 29.86L227.959 4.479L242.23 4.479C244.577 4.479 246.455 6.25195 246.455 8.49146C246.455 10.731 244.577 12.5039 242.23 12.5039L231.339 12.5039L231.339 13.9036L246.643 29.86L255.75 29.86L243.075 16.9829L244.859 16.9829C249.554 16.9829 253.591 12.9705 253.591 8.39819ZM40.3721 59.8134L41.3105 57.5739L45.6299 57.5739L46.5684 59.8134L49.1973 59.8134L44.6904 48.9891L42.4375 48.9891L37.9307 59.8134L40.3721 59.8134ZM43.4697 52.1617L44.6904 55.2411L42.249 55.2411L43.4697 52.1617ZM57.3652 59.8134L57.3652 51.3219L60.6514 51.3219L60.6514 48.9891L51.6387 48.9891L51.6387 51.3219L54.9238 51.3219L54.9238 59.8134L57.3652 59.8134ZM118.204 51.1353C118.956 51.1353 119.707 51.3219 120.458 51.7885L121.585 49.9222C120.928 49.269 119.613 48.8025 118.299 48.8025C116.515 48.8025 115.106 49.3623 114.073 50.3888C113.041 51.4153 112.571 52.8149 112.571 54.4012C112.571 56.0808 113.135 57.4806 114.167 58.507C115.2 59.5334 116.608 60 118.299 60C119.05 60 119.707 59.9067 120.364 59.6267C121.021 59.4402 121.49 59.0669 121.866 58.6936L120.928 56.8274C120.271 57.3872 119.425 57.5739 118.58 57.5739C117.642 57.5739 116.796 57.2939 116.233 56.6407C115.67 55.9875 115.294 55.2411 115.294 54.308C115.294 53.2815 115.576 52.4417 116.139 51.8818C116.608 51.4153 117.266 51.1353 118.204 51.1353ZM228.335 57.6672C227.49 57.6672 226.551 57.2939 225.987 56.5475L224.579 58.2271C224.861 58.787 225.33 59.1602 225.987 59.5334C226.738 59.8134 227.49 60 228.241 60C229.273 60 230.213 59.7201 230.87 59.0669C231.621 58.507 231.902 57.6672 231.902 56.734C231.902 53.1882 227.396 53.6548 227.396 51.8818C227.396 51.4153 227.771 51.042 228.522 51.042C229.273 51.042 229.649 51.2286 230.213 51.7885L231.527 49.9222C230.776 49.1758 229.743 48.7092 228.335 48.7092C227.302 48.7092 226.457 48.9891 225.8 49.6423C225.143 50.2021 224.861 50.9487 224.861 51.8818C224.861 53.9347 226.551 54.7745 227.771 55.3344C228.616 55.7076 229.367 56.1742 229.367 56.734C229.367 57.2939 228.992 57.6672 228.335 57.6672ZM69.7588 51.1353C70.5098 51.1353 71.2607 51.3219 72.0117 51.7885L73.1387 49.9222C72.4814 49.269 71.167 48.8025 69.8525 48.8025C68.0684 48.8025 66.6602 49.3623 65.6279 50.3888C64.5947 51.4153 64.125 52.8149 64.125 54.4012C64.125 56.0808 64.6885 57.4806 65.7217 58.507C66.7539 59.5334 68.1621 60 69.8525 60C70.6035 60 71.2607 59.9067 71.918 59.6267C72.5752 59.4402 73.0449 59.0669 73.4199 58.6936L72.4814 56.8274C71.8242 57.3872 70.9795 57.5739 70.1338 57.5739C69.1953 57.5739 68.3506 57.2939 67.7871 56.6407C67.2236 55.9875 66.8477 55.2411 66.8477 54.308C66.8477 53.2815 67.1299 52.4417 67.6934 51.8818C68.1621 51.4153 68.8193 51.1353 69.7588 51.1353ZM29.1055 48.9891L26.5703 48.9891L24.5049 55.8009L22.627 48.9891L19.8105 48.9891L23.0029 59.8134L25.3496 59.8134L27.6025 52.8149L29.8564 59.8134L32.2031 59.8134L35.3018 48.9891L32.8604 48.9891L30.9834 55.8009L29.1055 48.9891ZM219.791 51.3219L219.791 48.9891L213.312 48.9891L213.312 59.8134L219.885 59.8134L219.885 57.4806L215.754 57.4806L215.754 55.521L219.228 55.521L219.228 53.1882L215.754 53.1882L215.754 51.3219L219.791 51.3219ZM145.901 51.3219L145.901 48.9891L139.423 48.9891L139.423 59.8134L145.995 59.8134L145.995 57.4806L141.864 57.4806L141.864 55.521L145.338 55.521L145.338 53.1882L141.864 53.1882L141.864 51.3219L145.901 51.3219ZM166.275 57.6672C165.43 57.6672 164.491 57.2939 163.928 56.5475L162.52 58.2271C162.801 58.787 163.271 59.1602 163.928 59.5334C164.679 59.8134 165.43 60 166.182 60C167.214 60 168.152 59.7201 168.81 59.0669C169.562 58.507 169.843 57.6672 169.843 56.734C169.843 53.1882 165.336 53.6548 165.336 51.8818C165.336 51.4153 165.712 51.042 166.463 51.042C167.214 51.042 167.59 51.2286 168.152 51.7885L169.467 49.9222C168.716 49.1758 167.684 48.7092 166.275 48.7092C165.242 48.7092 164.397 48.9891 163.74 49.6423C163.083 50.2021 162.801 50.9487 162.801 51.8818C162.801 53.9347 164.491 54.7745 165.712 55.3344C166.557 55.7076 167.308 56.1742 167.308 56.734C167.308 57.2939 166.933 57.6672 166.275 57.6672ZM175.945 50.3888C174.913 51.4153 174.35 52.8149 174.35 54.4012C174.35 56.0808 174.913 57.4806 175.945 58.507C177.072 59.5334 178.387 60 180.076 60C181.767 60 183.081 59.4401 184.208 58.4137C185.334 57.3872 185.897 55.9875 185.897 54.4012C185.897 52.7216 185.334 51.3219 184.302 50.2955C183.269 49.269 181.86 48.8025 180.171 48.8025C178.387 48.8025 176.979 49.3623 175.945 50.3888ZM183.269 54.4012C183.269 55.3344 182.987 56.1742 182.424 56.734C181.86 57.2939 181.109 57.6672 180.076 57.6672C179.231 57.6672 178.48 57.3872 177.823 56.734C177.26 56.0808 176.885 55.3344 176.885 54.4012C176.885 53.4681 177.166 52.6283 177.729 52.0685C178.293 51.5085 179.044 51.1353 179.982 51.1353C180.828 51.1353 181.579 51.4153 182.236 52.0685C182.894 52.6283 183.269 53.3748 183.269 54.4012ZM198.76 52.4417C198.76 50.2955 197.54 48.9891 194.723 48.9891C194.629 48.9891 194.065 48.9891 192.939 48.9891C191.812 48.9891 191.249 48.9891 190.968 48.9891L190.968 59.8134L193.503 59.8134L193.503 55.9875L194.441 55.9875L197.07 59.8134L200.074 59.8134L196.883 55.521C198.197 54.9612 198.76 53.8413 198.76 52.4417ZM194.441 53.6548L193.503 53.6548L193.503 51.3219C194.16 51.3219 194.535 51.3219 194.629 51.3219C195.662 51.3219 196.131 51.6952 196.131 52.535C196.131 53.2815 195.568 53.6548 194.441 53.6548ZM78.1143 59.8134L80.6494 59.8134L80.6494 55.4277L84.5928 55.4277L84.5928 59.8134L87.1279 59.8134L87.1279 48.9891L84.5928 48.9891L84.5928 53.0948L80.6494 53.0948L80.6494 48.9891L78.1143 48.9891L78.1143 59.8134ZM97.8311 59.8134L100.366 59.8134L101.305 57.5739L105.624 57.5739L106.562 59.8134L109.191 59.8134L104.685 48.9891L102.338 48.9891L97.8311 59.8134ZM104.591 55.2411L102.149 55.2411L103.37 52.1617L104.591 55.2411ZM154.445 57.6672C153.601 57.6672 152.661 57.2939 152.098 56.5475L150.689 58.2271C150.972 58.787 151.44 59.1602 152.098 59.5334C152.85 59.8134 153.601 60 154.352 60C155.384 60 156.323 59.7201 156.98 59.0669C157.731 58.507 158.013 57.6672 158.013 56.734C158.013 53.1882 153.506 53.6548 153.506 51.8818C153.506 51.4153 153.882 51.042 154.633 51.042C155.384 51.042 155.76 51.2286 156.323 51.7885L157.638 49.9222C156.887 49.1758 155.854 48.7092 154.445 48.7092C153.412 48.7092 152.567 48.9891 151.91 49.6423C151.253 50.2021 150.972 50.9487 150.972 51.8818C150.972 53.9347 152.661 54.7745 153.882 55.3344C154.727 55.7076 155.478 56.1742 155.478 56.734C155.478 57.2939 155.103 57.6672 154.445 57.6672ZM207.304 59.8134L207.304 48.9891L204.769 48.9891L204.769 59.8134L207.304 59.8134ZM125.34 54.4012C125.34 56.0808 125.903 57.4806 126.937 58.507C127.969 59.5334 129.377 60 131.067 60C131.818 60 132.476 59.9067 133.133 59.6267C133.79 59.4402 134.26 59.0669 134.635 58.6936L133.696 56.8274C133.039 57.3872 132.193 57.5739 131.349 57.5739C130.41 57.5739 129.565 57.2939 129.002 56.6407C128.438 55.9875 128.062 55.2411 128.062 54.308C128.062 53.2815 128.345 52.4417 128.908 51.8818C129.471 51.3219 130.223 51.042 131.067 51.042C131.818 51.042 132.569 51.2286 133.32 51.6952L134.447 49.829C133.79 49.1758 132.476 48.7092 131.161 48.7092C129.377 48.7092 127.969 49.269 126.937 50.2955C125.81 51.4153 125.34 52.7216 125.34 54.4012Z" fill="#000000" fill-opacity="1.000000" fill-rule="nonzero"/>
</svg>
